<svg xmlns="http://www.w3.org/2000/svg" viewBox="0 0 900 760" role="img" aria-labelledby="title desc">
  <title id="title">Caribbean ingredients and Tobago hills</title><desc id="desc">An illustrated arrangement of spices, tropical fruit, leaves and rolling green hills.</desc>
  <rect width="900" height="760" rx="60" fill="#f2dfbd"/><circle cx="690" cy="150" r="92" fill="#c89b5b"/>
  <path d="M0 430Q180 290 360 440T720 420T900 390V760H0Z" fill="#78934b"/><path d="M0 520Q210 390 430 540T900 490V760H0Z" fill="#556b2f"/>
  <ellipse cx="440" cy="610" rx="350" ry="94" fill="#7a3f1d" opacity=".24"/>
  <path d="M176 590c45-152 120-232 221-250-1 122-74 226-221 250Z" fill="#35511f"/><path d="M720 565c-26-135-93-219-190-252-9 114 50 221 190 252Z" fill="#496727"/>
  <circle cx="416" cy="548" r="108" fill="#d9872f"/><path d="M416 440v216M308 548h216M340 472l152 152M492 472 340 624" stroke="#f7c66d" stroke-width="12" opacity=".8"/>
  <path d="M605 650c0-96 48-167 105-167s105 71 105 167Z" fill="#b34f2a"/><path d="M710 480c-36-51-74-58-114-23 47 10 80 24 114 23Zm1 0c39-48 80-52 117-14-49 6-84 17-117 14Z" fill="#2e5a27"/>
  <g fill="#e6b760"><ellipse cx="205" cy="648" rx="58" ry="27" transform="rotate(-20 205 648)"/><ellipse cx="280" cy="675" rx="53" ry="24" transform="rotate(14 280 675)"/><ellipse cx="340" cy="642" rx="48" ry="22" transform="rotate(-11 340 642)"/></g>
</svg>
