<svg xmlns="http://www.w3.org/2000/svg" viewBox="0 0 800 600" role="img" aria-labelledby="t d"><title id="t">Tropical fruit</title><desc id="d">Illustrated mango, papaya and citrus slices with tropical leaves.</desc><rect width="800" height="600" fill="#f6e7c9"/><path d="M80 350c80-160 190-220 320-173-70 123-170 182-320 173Z" fill="#556b2f"/><path d="M720 330c-73-135-169-188-289-145 66 105 161 155 289 145Z" fill="#6f8b3b"/><ellipse cx="279" cy="383" rx="131" ry="170" transform="rotate(-25 279 383)" fill="#e99a32"/><path d="M248 209c-5-55 26-94 93-117 0 63-31 102-93 117Z" fill="#34431d"/><ellipse cx="521" cy="390" rx="125" ry="157" transform="rotate(19 521 390)" fill="#d65c35"/><ellipse cx="521" cy="390" rx="74" ry="108" transform="rotate(19 521 390)" fill="#f2b94f"/><g fill="#4f2714"><circle cx="490" cy="347" r="9"/><circle cx="535" cy="370" r="9"/><circle cx="515" cy="421" r="9"/><circle cx="550" cy="439" r="9"/></g></svg>
